# xmcd CD database file
#
# Track frame offsets:
#	150
#	21028
#	43557
#	63760
#	77901
#	94170
#	105541
#	119159
#	138018
#	158116
#	185730
#	212396
#	230714
#	244270
#	262236
#	281577
#	297186
#	316719
#
# Disc length: 4435 seconds
#
# Revision: 1
# Processed by: cddbd v1.5.2PL0 Copyright (c) Steve Scherf et al.
# Submitted via: CDex 1.82
#
DISCID=02115112
DTITLE=Buddy Guy - Junior Wells - Little Walter and Otis Rush - The chicago Blues Festival
DYEAR=1997
DGENRE=Blues
TTITLE0=Buddy Guy - Buddies Blues
TTITLE1=Buddy Guy - Blue Monday
TTITLE2=Buddy Guy /Everyday I Have The Blues
TTITLE3=Buddy Guy - Woman Blues
TTITLE4=Buddy Guy - Satisfaction
TTITLE5=Buddy Guy and Junior Wells - Messin' With The Kid
TTITLE6=Buddy Guy and Junior Wells - No Use Cryin'
TTITLE7=Buddy Guy and Junior Wells - Just To Be With You
TTITLE8=Buddy Guy and Junior Wells - Junior's shuffle
TTITLE9=Buddy Guy and Junior Wells - Out Of Sight
TTITLE10=Otis Rush - It's Hard For Me To Believe Baby
TTITLE11=Otis Rush - May Be The Last Time
TTITLE12=Otis Rush - I Feel Good
TTITLE13=Otis Rush - Otis' Blues
TTITLE14=Otis Rush And Little Walter - Goin' Down Slow
TTITLE15=Otis Rush And Little Walter - Walter's Blues
TTITLE16=Otis Rush And Little Walter - Lovein' You All The Time
TTITLE17=Otis Rush And Little Walter - Blue Mood
EXTD=LIVE YEAR: 1997
EXTT0=
EXTT1=
EXTT2=
EXTT3=
EXTT4=
EXTT5=
EXTT6=
EXTT7=
EXTT8=
EXTT9=
EXTT10=
EXTT11=
EXTT12=
EXTT13=
EXTT14=
EXTT15=
EXTT16=
EXTT17=
PLAYORDER=
